<svg width="30" height="30" viewBox="0 0 30 30" fill="none" xmlns="http://www.w3.org/2000/svg">
<path d="M27.5 3H25V2C25 1.46957 24.7893 0.960859 24.4142 0.585786C24.0391 0.210714 23.5304 0 23 0C22.4696 0 21.9609 0.210714 21.5858 0.585786C21.2107 0.960859 21 1.46957 21 2V3H17V2C17 1.46957 16.7893 0.960859 16.4142 0.585786C16.0391 0.210714 15.5304 0 15 0C14.4696 0 13.9609 0.210714 13.5858 0.585786C13.2107 0.960859 13 1.46957 13 2V3H9V2C9 1.46957 8.78928 0.960859 8.41421 0.585786C8.03914 0.210714 7.53043 0 7 0C6.46957 0 5.96086 0.210714 5.58579 0.585786C5.21071 0.960859 5 1.46957 5 2V3H2.5C1.83696 3 1.20107 3.26339 0.732233 3.73223C0.263392 4.20107 0 4.83696 0 5.5V25.5C0 26.163 0.263392 26.7989 0.732233 27.2678C1.20107 27.7366 1.83696 28 2.5 28H16.5C16.6326 28 16.7598 27.9473 16.8536 27.8535C16.9473 27.7598 17 27.6326 17 27.5C17 27.3674 16.9473 27.2402 16.8536 27.1464C16.7598 27.0527 16.6326 27 16.5 27H2.5C2.10254 26.9988 1.7217 26.8404 1.44065 26.5593C1.1596 26.2783 1.00119 25.8975 1 25.5V10H29V18.5C29 18.6326 29.0527 18.7598 29.1464 18.8536C29.2402 18.9473 29.3674 19 29.5 19C29.6326 19 29.7598 18.9473 29.8535 18.8536C29.9473 18.7598 30 18.6326 30 18.5V5.5C30 4.83696 29.7366 4.20107 29.2678 3.73223C28.7989 3.26339 28.163 3 27.5 3ZM22 2C22 1.73478 22.1054 1.48043 22.2929 1.29289C22.4804 1.10536 22.7348 1 23 1C23.2652 1 23.5196 1.10536 23.7071 1.29289C23.8946 1.48043 24 1.73478 24 2V5C24 5.26522 23.8946 5.51957 23.7071 5.70711C23.5196 5.89464 23.2652 6 23 6C22.7348 6 22.4804 5.89464 22.2929 5.70711C22.1054 5.51957 22 5.26522 22 5V2ZM14 2C14 1.73478 14.1054 1.48043 14.2929 1.29289C14.4804 1.10536 14.7348 1 15 1C15.2652 1 15.5196 1.10536 15.7071 1.29289C15.8946 1.48043 16 1.73478 16 2V5C16 5.26522 15.8946 5.51957 15.7071 5.70711C15.5196 5.89464 15.2652 6 15 6C14.7348 6 14.4804 5.89464 14.2929 5.70711C14.1054 5.51957 14 5.26522 14 5V2ZM6 2C6 1.73478 6.10536 1.48043 6.29289 1.29289C6.48043 1.10536 6.73478 1 7 1C7.26522 1 7.51957 1.10536 7.70711 1.29289C7.89464 1.48043 8 1.73478 8 2V5C8 5.26522 7.89464 5.51957 7.70711 5.70711C7.51957 5.89464 7.26522 6 7 6C6.73478 6 6.48043 5.89464 6.29289 5.70711C6.10536 5.51957 6 5.26522 6 5V2ZM29 9H1V5.5C1.00119 5.10254 1.1596 4.7217 1.44065 4.44065C1.7217 4.1596 2.10254 4.00119 2.5 4H5V5C5 5.53043 5.21071 6.03914 5.58579 6.41421C5.96086 6.78929 6.46957 7 7 7C7.53043 7 8.03914 6.78929 8.41421 6.41421C8.78928 6.03914 9 5.53043 9 5V4H13V5C13 5.53043 13.2107 6.03914 13.5858 6.41421C13.9609 6.78929 14.4696 7 15 7C15.5304 7 16.0391 6.78929 16.4142 6.41421C16.7893 6.03914 17 5.53043 17 5V4H21V5C21 5.53043 21.2107 6.03914 21.5858 6.41421C21.9609 6.78929 22.4696 7 23 7C23.5304 7 24.0391 6.78929 24.4142 6.41421C24.7893 6.03914 25 5.53043 25 5V4H27.5C27.8975 4.00119 28.2783 4.1596 28.5593 4.44065C28.8404 4.7217 28.9988 5.10254 29 5.5V9Z" fill="white"/>
<path d="M14 13.5C14 13.2348 13.8946 12.9804 13.7071 12.7929C13.5196 12.6054 13.2652 12.5 13 12.5H11C10.7348 12.5 10.4804 12.6054 10.2929 12.7929C10.1054 12.9804 10 13.2348 10 13.5V15C10 15.2652 10.1054 15.5196 10.2929 15.7071C10.4804 15.8946 10.7348 16 11 16H13C13.2652 16 13.5196 15.8946 13.7071 15.7071C13.8946 15.5196 14 15.2652 14 15V13.5ZM11 15V13.5H13V15H11Z" fill="white"/>
<path d="M8 13.5C8 13.2348 7.89464 12.9804 7.70711 12.7929C7.51957 12.6054 7.26522 12.5 7 12.5H5C4.73478 12.5 4.48043 12.6054 4.29289 12.7929C4.10536 12.9804 4 13.2348 4 13.5V15C4 15.2652 4.10536 15.5196 4.29289 15.7071C4.48043 15.8946 4.73478 16 5 16H7C7.26522 16 7.51957 15.8946 7.70711 15.7071C7.89464 15.5196 8 15.2652 8 15V13.5ZM5 15V13.5H7V15H5Z" fill="white"/>
<path d="M25 16C25.2652 16 25.5196 15.8946 25.7071 15.7071C25.8946 15.5196 26 15.2652 26 15V13.5C26 13.2348 25.8946 12.9804 25.7071 12.7929C25.5196 12.6054 25.2652 12.5 25 12.5H23C22.7348 12.5 22.4804 12.6054 22.2929 12.7929C22.1054 12.9804 22 13.2348 22 13.5V15C22 15.2652 22.1054 15.5196 22.2929 15.7071C22.4804 15.8946 22.7348 16 23 16H25ZM23 13.5H25V15H23V13.5Z" fill="white"/>
<path d="M14 18C14 17.7348 13.8946 17.4804 13.7071 17.2929C13.5196 17.1054 13.2652 17 13 17H11C10.7348 17 10.4804 17.1054 10.2929 17.2929C10.1054 17.4804 10 17.7348 10 18V19.5C10 19.7652 10.1054 20.0196 10.2929 20.2071C10.4804 20.3946 10.7348 20.5 11 20.5H13C13.2652 20.5 13.5196 20.3946 13.7071 20.2071C13.8946 20.0196 14 19.7652 14 19.5V18ZM11 19.5V18H13V19.5H11Z" fill="white"/>
<path d="M8 18C8 17.7348 7.89464 17.4804 7.70711 17.2929C7.51957 17.1054 7.26522 17 7 17H5C4.73478 17 4.48043 17.1054 4.29289 17.2929C4.10536 17.4804 4 17.7348 4 18V19.5C4 19.7652 4.10536 20.0196 4.29289 20.2071C4.48043 20.3946 4.73478 20.5 5 20.5H7C7.26522 20.5 7.51957 20.3946 7.70711 20.2071C7.89464 20.0196 8 19.7652 8 19.5V18ZM5 19.5V18H7V19.5H5Z" fill="white"/>
<path d="M13 21.5H11C10.7348 21.5 10.4804 21.6054 10.2929 21.7929C10.1054 21.9804 10 22.2348 10 22.5V24C10 24.2652 10.1054 24.5196 10.2929 24.7071C10.4804 24.8946 10.7348 25 11 25H13C13.2652 25 13.5196 24.8946 13.7071 24.7071C13.8946 24.5196 14 24.2652 14 24V22.5C14 22.2348 13.8946 21.9804 13.7071 21.7929C13.5196 21.6054 13.2652 21.5 13 21.5ZM11 24V22.5H13V24H11Z" fill="white"/>
<path d="M17 16H19C19.2652 16 19.5196 15.8946 19.7071 15.7071C19.8946 15.5196 20 15.2652 20 15V13.5C20 13.2348 19.8946 12.9804 19.7071 12.7929C19.5196 12.6054 19.2652 12.5 19 12.5H17C16.7348 12.5 16.4804 12.6054 16.2929 12.7929C16.1054 12.9804 16 13.2348 16 13.5V15C16 15.2652 16.1054 15.5196 16.2929 15.7071C16.4804 15.8946 16.7348 16 17 16ZM17 13.5H19V15H17V13.5Z" fill="white"/>
<path d="M16 19.5C16 19.7652 16.1054 20.0196 16.2929 20.2071C16.4804 20.3946 16.7348 20.5 17 20.5C17.1326 20.5 17.2598 20.4473 17.3536 20.3536C17.4473 20.2598 17.5 20.1326 17.5 20C17.5 19.8674 17.4473 19.7402 17.3536 19.6464C17.2598 19.5527 17.1326 19.5 17 19.5V18H19C19.1326 18 19.2598 17.9473 19.3536 17.8536C19.4473 17.7598 19.5 17.6326 19.5 17.5C19.5 17.3674 19.4473 17.2402 19.3536 17.1464C19.2598 17.0527 19.1326 17 19 17H17C16.7348 17 16.4804 17.1054 16.2929 17.2929C16.1054 17.4804 16 17.7348 16 18V19.5Z" fill="white"/>
<path d="M7 21.5H5C4.73478 21.5 4.48043 21.6054 4.29289 21.7929C4.10536 21.9804 4 22.2348 4 22.5V24C4 24.2652 4.10536 24.5196 4.29289 24.7071C4.48043 24.8946 4.73478 25 5 25H7C7.26522 25 7.51957 24.8946 7.70711 24.7071C7.89464 24.5196 8 24.2652 8 24V22.5C8 22.2348 7.89464 21.9804 7.70711 21.7929C7.51957 21.6054 7.26522 21.5 7 21.5ZM5 24V22.5H7V24H5Z" fill="white"/>
<path d="M23.5 17C22.2144 17 20.9577 17.3812 19.8888 18.0954C18.8199 18.8097 17.9867 19.8248 17.4948 21.0126C17.0028 22.2003 16.8741 23.5072 17.1249 24.7681C17.3757 26.029 17.9948 27.1872 18.9038 28.0962C19.8128 29.0052 20.971 29.6243 22.2319 29.8751C23.4928 30.1259 24.7997 29.9972 25.9874 29.5052C27.1752 29.0132 28.1903 28.1801 28.9045 27.1112C29.6188 26.0423 30 24.7856 30 23.5C29.998 21.7767 29.3126 20.1246 28.094 18.906C26.8754 17.6874 25.2233 17.002 23.5 17ZM23.5 29C22.4122 29 21.3488 28.6774 20.4444 28.0731C19.5399 27.4687 18.8349 26.6098 18.4187 25.6048C18.0024 24.5998 17.8935 23.4939 18.1057 22.427C18.3179 21.3601 18.8417 20.3801 19.6109 19.6109C20.3801 18.8417 21.3601 18.3179 22.427 18.1057C23.4939 17.8935 24.5998 18.0024 25.6048 18.4187C26.6097 18.8349 27.4687 19.5399 28.0731 20.4444C28.6774 21.3488 29 22.4122 29 23.5C28.9983 24.9582 28.4183 26.3561 27.3872 27.3872C26.3561 28.4183 24.9582 28.9983 23.5 29Z" fill="white"/>
<path d="M26.389 21.404L22.5 25.293L20.7325 23.525C20.6382 23.4339 20.5119 23.3836 20.3808 23.3847C20.2497 23.3858 20.1243 23.4384 20.0316 23.5311C19.9389 23.6238 19.8863 23.7492 19.8852 23.8803C19.884 24.0114 19.9344 24.1377 20.0255 24.232L22.1465 26.3535C22.2403 26.4473 22.3674 26.4999 22.5 26.4999C22.6326 26.4999 22.7597 26.4473 22.8535 26.3535L27.096 22.111C27.1871 22.0167 27.2375 21.8904 27.2363 21.7593C27.2352 21.6282 27.1826 21.5028 27.0899 21.4101C26.9972 21.3174 26.8718 21.2648 26.7407 21.2637C26.6096 21.2626 26.4833 21.3129 26.389 21.404Z" fill="white"/>
</svg>
