<svg width="28" height="30" viewBox="0 0 28 30" fill="none" xmlns="http://www.w3.org/2000/svg">
<path d="M7.67385 27.1504V26.1465C7.67385 25.6457 7.26645 25.2383 6.76564 25.2383H3.82031C3.31951 25.2383 2.91211 25.6457 2.91211 26.1465V27.1504C2.91211 27.6512 3.31951 28.0586 3.82031 28.0586H6.76564C7.26645 28.0586 7.67385 27.6512 7.67385 27.1504ZM3.79102 27.1504V26.1465C3.79102 26.1303 3.80414 26.1172 3.82031 26.1172H6.76564C6.78182 26.1172 6.79494 26.1303 6.79494 26.1465V27.1504C6.79494 27.1665 6.78182 27.1797 6.76564 27.1797H3.82031C3.80414 27.1797 3.79102 27.1665 3.79102 27.1504Z" fill="white"/>
<path d="M19.8536 20.3848C19.076 20.3848 18.4434 21.0173 18.4434 21.7949C18.4434 22.5725 19.076 23.2051 19.8536 23.2051C20.6311 23.2051 21.2637 22.5725 21.2637 21.7949C21.2637 21.0174 20.6311 20.3848 19.8536 20.3848ZM19.8536 22.3262C19.5606 22.3262 19.3223 22.0879 19.3223 21.7949C19.3223 21.502 19.5606 21.2637 19.8536 21.2637C20.1465 21.2637 20.3848 21.502 20.3848 21.7949C20.3848 22.0879 20.1465 22.3262 19.8536 22.3262Z" fill="white"/>
<path d="M24.707 16.5019H24.1758V14.0293V10.1464C24.1758 9.36891 23.5433 8.73633 22.7657 8.73633H22.2345V2.86623C22.2345 2.35629 21.8195 1.94145 21.3096 1.94145H12.5733C12.5578 1.94145 12.5427 1.94303 12.5274 1.94379V1.37695C12.5274 0.617695 11.9097 0 11.1504 0H3.31834C2.55908 0 1.94139 0.617695 1.94139 1.37695V2.95799C1.94139 3.20068 2.13814 3.39744 2.38084 3.39744C2.62354 3.39744 2.82029 3.20068 2.82029 2.95799V1.37695C2.82029 1.10232 3.04371 0.878906 3.31834 0.878906H3.88277V12.6192H2.82029V4.7158C2.82029 4.47311 2.62354 4.27635 2.38084 4.27635C2.13814 4.27635 1.94139 4.47311 1.94139 4.7158V8.77705C1.46186 8.86582 1.02234 9.09926 0.674297 9.45703C0.241113 9.90228 0.00410151 10.4841 0.000703074 11.1029C0.000527293 11.1077 0 11.1124 0 11.1172V27.6191C0 28.932 1.06805 30 2.3809 30H4.41404C4.65674 30 4.8535 29.8032 4.8535 29.5605C4.8535 29.3179 4.65674 29.1211 4.41404 29.1211H2.3809C1.55273 29.1211 0.878906 28.4473 0.878906 27.6191V12.9444C1.28068 13.2734 1.78986 13.4779 2.34146 13.496C2.35447 13.4972 22.7656 13.498 22.7656 13.498C23.0585 13.498 23.2968 13.7363 23.2968 14.0292V18.4433H17.912C17.1345 18.4433 16.5019 19.0758 16.5019 19.8534V23.7363C16.5019 24.5139 17.1345 25.1464 17.912 25.1464H23.2968V28.5898C23.2968 28.8827 23.0585 29.1211 22.7656 29.1211H6.17186C5.92916 29.1211 5.7324 29.3179 5.7324 29.5605C5.7324 29.8032 5.92916 30 6.17186 30H22.7657C23.5433 30 24.1758 29.3674 24.1758 28.5898V25.1464H24.707C26.0198 25.1464 27.0878 24.0784 27.0878 22.7656V18.8828C27.0879 17.57 26.0198 16.5019 24.707 16.5019V16.5019ZM0.879492 11.1597C0.868242 10.75 1.01912 10.363 1.30424 10.0699C1.48395 9.88523 1.70221 9.75293 1.94139 9.68021V12.543C1.34162 12.3485 0.897129 11.8021 0.879492 11.1597ZM12.5732 2.82029H21.3095C21.3349 2.82029 21.3555 2.84092 21.3555 2.86617V12.6191H20.2929V5.56904C20.2929 5.24725 20.0737 4.97367 19.76 4.90383C19.5355 4.85379 19.3212 4.63939 19.2721 4.4158C19.2042 4.10689 18.9244 3.88271 18.6068 3.88271H15.276C14.9542 3.88271 14.6807 4.10191 14.6108 4.41568C14.5608 4.64021 14.3464 4.85449 14.1228 4.90365C13.8139 4.9715 13.5897 5.25129 13.5897 5.56893V12.6191H12.5273V2.86623C12.5273 2.84092 12.5479 2.82029 12.5732 2.82029V2.82029ZM19.414 12.6192H14.4687V5.71764C14.9057 5.56582 15.2722 5.19926 15.4246 4.76174H18.4581C18.61 5.19867 18.9765 5.56523 19.414 5.71764V12.6192ZM11.6484 1.37695V2.86623V12.6192H6.70312V0.878906H11.1504C11.425 0.878906 11.6484 1.10232 11.6484 1.37695ZM4.76174 12.6192V0.878906H5.82422V12.6192H4.76174ZM22.7657 12.6192H22.2344V9.61523H22.7657C23.0586 9.61523 23.2969 9.85354 23.2969 10.1464V12.7233C23.1328 12.6564 22.9535 12.6192 22.7657 12.6192ZM26.209 22.7656C26.209 23.5938 25.5352 24.2675 24.707 24.2675H17.9121C17.6192 24.2675 17.3808 24.0292 17.3808 23.7363V19.8535C17.3808 19.5606 17.6191 19.3222 17.9121 19.3222H24.2217C24.4644 19.3222 24.6611 19.1255 24.6611 18.8828C24.6611 18.6401 24.4644 18.4433 24.2217 18.4433H24.1758V17.3808H24.707C25.5352 17.3808 26.2089 18.0546 26.2089 18.8828V22.7656H26.209Z" fill="white"/>
<path d="M16.9414 8.73633C16.1638 8.73633 15.5312 9.36891 15.5312 10.1464C15.5312 10.924 16.1638 11.5566 16.9414 11.5566C17.719 11.5566 18.3515 10.924 18.3515 10.1464C18.3516 9.36891 17.719 8.73633 16.9414 8.73633ZM16.9414 10.6777C16.6484 10.6777 16.4101 10.4394 16.4101 10.1464C16.4101 9.85353 16.6484 9.61523 16.9414 9.61523C17.2343 9.61523 17.4726 9.85353 17.4726 10.1464C17.4727 10.4394 17.2343 10.6777 16.9414 10.6777Z" fill="white"/>
<path d="M16.9414 7.67385C17.1841 7.67385 17.3808 7.47709 17.3808 7.23439V6.26367C17.3808 6.02098 17.1841 5.82422 16.9414 5.82422C16.6987 5.82422 16.5019 6.02098 16.5019 6.26367V7.23439C16.5019 7.47709 16.6987 7.67385 16.9414 7.67385Z" fill="white"/>
<path d="M8.67381 5.73242H9.6777C10.1785 5.73242 10.5859 5.32502 10.5859 4.82422V2.84961C10.5859 2.34881 10.1785 1.94141 9.6777 1.94141H8.67381C8.17301 1.94141 7.76561 2.34881 7.76561 2.84961V4.82422C7.76561 5.32496 8.17301 5.73242 8.67381 5.73242ZM8.64452 2.84955C8.64452 2.83338 8.65764 2.82025 8.67381 2.82025H9.6777C9.69387 2.82025 9.707 2.83338 9.707 2.84955V4.82416C9.707 4.84033 9.69387 4.85346 9.6777 4.85346H8.67381C8.65764 4.85346 8.64452 4.84033 8.64452 4.82416V2.84955Z" fill="white"/>
</svg>
